<mxfile host="app.diagrams.net" agent="Mozilla/5.0 (Windows NT 10.0; Win64; x64) AppleWebKit/537.36 (KHTML, like Gecko) Chrome/130.0.0.0 Safari/537.36 Edg/130.0.0.0" version="24.8.4">
  <diagram name="Page-1" id="i0p0Lw8omYNk4Uz4UzAv">
    <mxGraphModel dx="710" dy="3027" grid="1" gridSize="10" guides="1" tooltips="1" connect="1" arrows="1" fold="1" page="1" pageScale="1" pageWidth="850" pageHeight="1100" math="0" shadow="0">
      <root>
        <mxCell id="0" />
        <mxCell id="1" parent="0" />
        <mxCell id="_XNoOCEPYwUfkBV3_s9p-2" value="InnerOverview" style="html=1;overflow=block;blockSpacing=1;whiteSpace=wrap;fontSize=20;fontFamily=Liberation Serif;align=center;spacing=9;strokeColor=#3a414a;strokeOpacity=100;fillOpacity=100;rounded=1;absoluteArcSize=1;arcSize=9;fillColor=#ffffff;strokeWidth=1.5;lucidId=CRRqyGpoH.er;" vertex="1" parent="1">
          <mxGeometry x="2970" y="390" width="180" height="90" as="geometry" />
        </mxCell>
        <mxCell id="_XNoOCEPYwUfkBV3_s9p-3" value="" style="html=1;jettySize=18;whiteSpace=wrap;fontSize=13;strokeColor=#3a414a;strokeOpacity=100;strokeWidth=3.8;rounded=1;arcSize=12;edgeStyle=orthogonalEdgeStyle;startArrow=none;endArrow=block;endFill=1;exitX=1.004;exitY=0.5;exitPerimeter=0;entryX=-0.003;entryY=0.5;entryPerimeter=0;lucidId=ORRqUXtS6Cgp;" edge="1" parent="1" source="_XNoOCEPYwUfkBV3_s9p-2" target="_XNoOCEPYwUfkBV3_s9p-4">
          <mxGeometry width="100" height="100" relative="1" as="geometry">
            <Array as="points" />
          </mxGeometry>
        </mxCell>
        <mxCell id="_XNoOCEPYwUfkBV3_s9p-4" value="&lt;div style=&quot;display: flex; justify-content: center; text-align: center; align-items: baseline; font-size: 0; line-height: 1.25;margin-top: -2px;&quot;&gt;&lt;span&gt;&lt;span style=&quot;font-size:20px;font-family: Liberation Serif;&quot;&gt;MonthRangeComponent&#xa;&lt;/span&gt;&lt;/span&gt;&lt;/div&gt;&lt;div style=&quot;display: flex; justify-content: center; text-align: center; align-items: baseline; font-size: 0; line-height: 1.25;margin-top: -2px;&quot;&gt;&lt;span&gt;&lt;span style=&quot;font-size:20px;font-family: Liberation Serif;&quot;&gt;ref=&quot;projectMonthRangeDom&quot;&lt;/span&gt;&lt;/span&gt;&lt;/div&gt;" style="html=1;overflow=block;blockSpacing=1;whiteSpace=wrap;fontSize=13;fontFamily=Liberation Serif;spacing=9;strokeColor=#3a414a;strokeOpacity=100;fillOpacity=100;rounded=1;absoluteArcSize=1;arcSize=9;fillColor=#ffffff;strokeWidth=1.5;lucidId=uURqdbWLdfF~;" vertex="1" parent="1">
          <mxGeometry x="3584" y="-181" width="285" height="90" as="geometry" />
        </mxCell>
        <mxCell id="_XNoOCEPYwUfkBV3_s9p-5" value="a-range-picker" style="html=1;overflow=block;blockSpacing=1;whiteSpace=wrap;fontSize=20;fontFamily=Liberation Serif;align=center;spacing=9;strokeColor=#3a414a;strokeOpacity=100;fillOpacity=100;rounded=1;absoluteArcSize=1;arcSize=9;fillColor=#ffffff;strokeWidth=1.5;lucidId=8VRqY.DcGmkT;" vertex="1" parent="1">
          <mxGeometry x="3788" y="-469" width="285" height="90" as="geometry" />
        </mxCell>
        <mxCell id="_XNoOCEPYwUfkBV3_s9p-6" value="Emit" style="html=1;overflow=block;blockSpacing=1;whiteSpace=wrap;fontSize=16.7;fontFamily=Liberation Serif;align=center;spacing=9;strokeColor=#3a414a;strokeOpacity=100;fillOpacity=100;rounded=1;absoluteArcSize=1;arcSize=9;fillColor=#ffffff;strokeWidth=1.5;lucidId=93RqLvhTBGas;" vertex="1" parent="1">
          <mxGeometry x="4448" y="-686" width="60" height="26" as="geometry" />
        </mxCell>
        <mxCell id="_XNoOCEPYwUfkBV3_s9p-7" value="" style="html=1;jettySize=18;whiteSpace=wrap;fontSize=13;strokeColor=#3a414a;strokeOpacity=100;dashed=1;fixDash=1;dashPattern=1 2;strokeWidth=0.8;rounded=1;arcSize=12;edgeStyle=orthogonalEdgeStyle;startArrow=none;endArrow=block;endFill=1;exitX=0.5;exitY=1.029;exitPerimeter=0;entryX=-0.003;entryY=0.5;entryPerimeter=0;lucidId=a4RqKl9xCysL;" edge="1" parent="1" source="_XNoOCEPYwUfkBV3_s9p-6" target="_XNoOCEPYwUfkBV3_s9p-18">
          <mxGeometry width="100" height="100" relative="1" as="geometry">
            <Array as="points" />
          </mxGeometry>
        </mxCell>
        <mxCell id="_XNoOCEPYwUfkBV3_s9p-8" value="" style="html=1;jettySize=18;whiteSpace=wrap;fontSize=13;strokeColor=#3a414a;strokeOpacity=100;dashed=1;fixDash=1;dashPattern=1 2;strokeWidth=0.8;rounded=1;arcSize=12;edgeStyle=orthogonalEdgeStyle;startArrow=none;endArrow=block;endFill=1;exitX=0.5;exitY=-0.029;exitPerimeter=0;entryX=-0.003;entryY=0.5;entryPerimeter=0;lucidId=y4RqltqC-4p6;" edge="1" parent="1" source="_XNoOCEPYwUfkBV3_s9p-6" target="_XNoOCEPYwUfkBV3_s9p-17">
          <mxGeometry width="100" height="100" relative="1" as="geometry">
            <Array as="points" />
          </mxGeometry>
        </mxCell>
        <mxCell id="_XNoOCEPYwUfkBV3_s9p-9" value="" style="html=1;jettySize=18;whiteSpace=wrap;fontSize=13;strokeColor=#3a414a;strokeOpacity=100;dashed=1;fixDash=1;dashPattern=1 2;strokeWidth=0.8;rounded=1;arcSize=12;edgeStyle=orthogonalEdgeStyle;startArrow=none;endArrow=block;endFill=1;exitX=1.003;exitY=0.5;exitPerimeter=0;entryX=-0.003;entryY=0.5;entryPerimeter=0;lucidId=QiSq.hFeBh9q;" edge="1" parent="1" source="_XNoOCEPYwUfkBV3_s9p-17" target="_XNoOCEPYwUfkBV3_s9p-11">
          <mxGeometry width="100" height="100" relative="1" as="geometry">
            <Array as="points" />
          </mxGeometry>
        </mxCell>
        <mxCell id="_XNoOCEPYwUfkBV3_s9p-10" value="" style="html=1;jettySize=18;whiteSpace=wrap;fontSize=13;strokeColor=#3a414a;strokeOpacity=100;dashed=1;fixDash=1;dashPattern=1 2;strokeWidth=0.8;rounded=1;arcSize=12;edgeStyle=orthogonalEdgeStyle;startArrow=none;endArrow=block;endFill=1;exitX=1.003;exitY=0.5;exitPerimeter=0;entryX=-0.003;entryY=0.5;entryPerimeter=0;lucidId=T8Rqv9e_PbBb;" edge="1" parent="1" source="_XNoOCEPYwUfkBV3_s9p-18" target="_XNoOCEPYwUfkBV3_s9p-11">
          <mxGeometry width="100" height="100" relative="1" as="geometry">
            <Array as="points" />
          </mxGeometry>
        </mxCell>
        <mxCell id="_XNoOCEPYwUfkBV3_s9p-11" value="monthRange(dayjs)(2)" style="html=1;overflow=block;blockSpacing=1;whiteSpace=wrap;fontSize=20;fontFamily=Liberation Serif;align=center;spacing=9;strokeColor=#3a414a;strokeOpacity=100;fillOpacity=100;rounded=1;absoluteArcSize=1;arcSize=9;fillColor=#ffffff;strokeWidth=1.5;lucidId=y9Rq8SW8.4Dn;" vertex="1" parent="1">
          <mxGeometry x="5152" y="-720" width="285" height="90" as="geometry" />
        </mxCell>
        <mxCell id="_XNoOCEPYwUfkBV3_s9p-12" value="" style="html=1;jettySize=18;whiteSpace=wrap;fontSize=13;strokeColor=#3a414a;strokeOpacity=100;strokeWidth=3.8;rounded=1;arcSize=12;edgeStyle=orthogonalEdgeStyle;startArrow=none;endArrow=block;endFill=1;exitX=0.5;exitY=-0.008;exitPerimeter=0;entryX=-0.003;entryY=0.5;entryPerimeter=0;lucidId=c~RqqsnHB409;" edge="1" parent="1" source="_XNoOCEPYwUfkBV3_s9p-4" target="_XNoOCEPYwUfkBV3_s9p-5">
          <mxGeometry width="100" height="100" relative="1" as="geometry">
            <Array as="points" />
          </mxGeometry>
        </mxCell>
        <mxCell id="_XNoOCEPYwUfkBV3_s9p-13" value="&lt;div style=&quot;display: flex; justify-content: center; text-align: center; align-items: baseline; font-size: 0; line-height: 1.25;margin-top: -2px;&quot;&gt;&lt;span&gt;&lt;span style=&quot;font-size:20px;font-family: Liberation Serif;&quot;&gt;button&#xa;&lt;/span&gt;&lt;/span&gt;&lt;/div&gt;&lt;div style=&quot;display: flex; justify-content: center; text-align: center; align-items: baseline; font-size: 0; line-height: 1.25;margin-top: -2px;&quot;&gt;&lt;span&gt;&lt;span style=&quot;font-size:20px;font-family: Liberation Serif;&quot;&gt;click-handleSubmit&lt;/span&gt;&lt;/span&gt;&lt;/div&gt;" style="html=1;overflow=block;blockSpacing=1;whiteSpace=wrap;fontSize=13;fontFamily=Liberation Serif;spacing=9;strokeColor=#3a414a;strokeOpacity=100;fillOpacity=100;rounded=1;absoluteArcSize=1;arcSize=9;fillColor=#ffffff;strokeWidth=1.5;lucidId=5~RqF.AMzqkQ;" vertex="1" parent="1">
          <mxGeometry x="3584" y="42" width="195" height="90" as="geometry" />
        </mxCell>
        <mxCell id="_XNoOCEPYwUfkBV3_s9p-14" value="" style="html=1;jettySize=18;whiteSpace=wrap;fontSize=13;strokeColor=#3a414a;strokeOpacity=100;dashed=1;fixDash=1;strokeWidth=0.8;rounded=1;arcSize=12;edgeStyle=orthogonalEdgeStyle;startArrow=none;exitX=1.003;exitY=0.5;exitPerimeter=0;entryX=-0.013;entryY=0.5;entryPerimeter=0;lucidId=uaSqfJSKK2y5;" edge="1" parent="1" source="_XNoOCEPYwUfkBV3_s9p-5" target="_XNoOCEPYwUfkBV3_s9p-6">
          <mxGeometry width="100" height="100" relative="1" as="geometry">
            <Array as="points" />
          </mxGeometry>
        </mxCell>
        <mxCell id="_XNoOCEPYwUfkBV3_s9p-15" value="" style="html=1;jettySize=18;whiteSpace=wrap;fontSize=13;strokeColor=#3a414a;strokeOpacity=100;dashed=1;fixDash=1;dashPattern=16 6;strokeWidth=0.8;rounded=1;arcSize=12;edgeStyle=orthogonalEdgeStyle;startArrow=none;endArrow=none;exitX=0.5;exitY=-0.008;exitPerimeter=0;entryX=0.013;entryY=0.5;entryPerimeter=0;lucidId=5bSq2y-Gk9wn;" edge="1" parent="1" source="_XNoOCEPYwUfkBV3_s9p-4" target="_XNoOCEPYwUfkBV3_s9p-16">
          <mxGeometry width="100" height="100" relative="1" as="geometry">
            <Array as="points" />
          </mxGeometry>
        </mxCell>
        <mxCell id="_XNoOCEPYwUfkBV3_s9p-16" value="true" style="html=1;overflow=block;blockSpacing=1;whiteSpace=wrap;rhombus;fontSize=20;fontFamily=Liberation Serif;align=center;spacing=9;strokeColor=#3a414a;strokeOpacity=100;fillOpacity=100;rounded=1;absoluteArcSize=1;arcSize=9;fillColor=#ffffff;strokeWidth=1.5;lucidId=ecSqBdTlOXAj;" vertex="1" parent="1">
          <mxGeometry x="4079" y="-315" width="195" height="60" as="geometry" />
        </mxCell>
        <mxCell id="_XNoOCEPYwUfkBV3_s9p-17" value="&quot;update:monthRange&quot; value" style="html=1;overflow=block;blockSpacing=1;whiteSpace=wrap;fontSize=20;fontFamily=Liberation Serif;align=center;spacing=9;strokeColor=#3a414a;strokeOpacity=100;fillOpacity=100;rounded=1;absoluteArcSize=1;arcSize=9;fillColor=#ffffff;strokeWidth=1.5;lucidId=MiSqNx-j~J05;" vertex="1" parent="1">
          <mxGeometry x="4687" y="-795" width="225" height="90" as="geometry" />
        </mxCell>
        <mxCell id="_XNoOCEPYwUfkBV3_s9p-18" value="&quot;change&quot; value" style="html=1;overflow=block;blockSpacing=1;whiteSpace=wrap;fontSize=20;fontFamily=Liberation Serif;align=center;spacing=9;strokeColor=#3a414a;strokeOpacity=100;fillOpacity=100;rounded=1;absoluteArcSize=1;arcSize=9;fillColor=#ffffff;strokeWidth=1.5;lucidId=ojSq~z2FGPGq;" vertex="1" parent="1">
          <mxGeometry x="4687" y="-645" width="225" height="90" as="geometry" />
        </mxCell>
        <mxCell id="_XNoOCEPYwUfkBV3_s9p-19" value="defineExpose" style="html=1;overflow=block;blockSpacing=1;whiteSpace=wrap;fontSize=16.7;fontFamily=Liberation Serif;align=center;spacing=9;strokeColor=#3a414a;strokeOpacity=100;fillOpacity=100;rounded=1;absoluteArcSize=1;arcSize=9;fillColor=#ffffff;strokeWidth=1.5;lucidId=2kSqJx0SyETL;" vertex="1" parent="1">
          <mxGeometry x="4448" y="-437" width="105" height="26" as="geometry" />
        </mxCell>
        <mxCell id="_XNoOCEPYwUfkBV3_s9p-20" value="" style="html=1;jettySize=18;whiteSpace=wrap;fontSize=13;strokeColor=#3a414a;strokeOpacity=100;dashed=1;fixDash=1;strokeWidth=0.8;rounded=1;arcSize=12;edgeStyle=orthogonalEdgeStyle;startArrow=none;entryX=-0.007;entryY=0.5;entryPerimeter=0;lucidId=pnSqL6uWDG2M;" edge="1" parent="1" target="_XNoOCEPYwUfkBV3_s9p-19">
          <mxGeometry width="100" height="100" relative="1" as="geometry">
            <Array as="points" />
            <mxPoint x="4258" y="-424" as="sourcePoint" />
          </mxGeometry>
        </mxCell>
        <mxCell id="_XNoOCEPYwUfkBV3_s9p-21" value="" style="html=1;jettySize=18;whiteSpace=wrap;fontSize=13;strokeColor=#3a414a;strokeOpacity=100;dashed=1;fixDash=1;strokeWidth=0.8;rounded=1;arcSize=12;edgeStyle=orthogonalEdgeStyle;startArrow=none;exitX=1.007;exitY=0.5;exitPerimeter=0;entryX=-0.004;entryY=0.5;entryPerimeter=0;lucidId=ioSqYv8FE9c9;" edge="1" parent="1" source="_XNoOCEPYwUfkBV3_s9p-19" target="_XNoOCEPYwUfkBV3_s9p-22">
          <mxGeometry width="100" height="100" relative="1" as="geometry">
            <Array as="points" />
          </mxGeometry>
        </mxCell>
        <mxCell id="_XNoOCEPYwUfkBV3_s9p-22" value="Validate" style="html=1;overflow=block;blockSpacing=1;whiteSpace=wrap;fontSize=13;spacing=9;strokeColor=#3a414a;strokeOpacity=100;fillOpacity=100;rounded=1;absoluteArcSize=1;arcSize=9;fillColor=#ffffff;strokeWidth=1.5;lucidId=SoSqVd-V1-mn;" vertex="1" parent="1">
          <mxGeometry x="4718" y="-465" width="180" height="86" as="geometry" />
        </mxCell>
        <mxCell id="_XNoOCEPYwUfkBV3_s9p-23" value="" style="html=1;jettySize=18;whiteSpace=wrap;fontSize=13;strokeColor=#3a414a;strokeOpacity=100;strokeWidth=3.8;rounded=1;arcSize=12;edgeStyle=orthogonalEdgeStyle;startArrow=none;endArrow=block;endFill=1;entryX=-0.004;entryY=0.5;entryPerimeter=0;lucidId=225qn0_gYfB4;" edge="1" parent="1" target="_XNoOCEPYwUfkBV3_s9p-13">
          <mxGeometry width="100" height="100" relative="1" as="geometry">
            <Array as="points" />
            <mxPoint x="3370" y="87" as="sourcePoint" />
          </mxGeometry>
        </mxCell>
        <mxCell id="_XNoOCEPYwUfkBV3_s9p-24" value="" style="html=1;jettySize=18;whiteSpace=wrap;fontSize=13;strokeColor=#3a414a;strokeOpacity=100;dashed=1;fixDash=1;strokeWidth=3;rounded=1;arcSize=12;edgeStyle=orthogonalEdgeStyle;startArrow=openAsync;startSize=10;endArrow=openAsync;flipV=1;endSize=10;exitX=0.447;exitY=1.008;exitPerimeter=0;entryX=0.496;entryY=-0.008;entryPerimeter=0;lucidId=135q_H8a1Lu2;" edge="1" parent="1" source="_XNoOCEPYwUfkBV3_s9p-4" target="_XNoOCEPYwUfkBV3_s9p-13">
          <mxGeometry width="100" height="100" relative="1" as="geometry">
            <Array as="points" />
          </mxGeometry>
        </mxCell>
        <mxCell id="_XNoOCEPYwUfkBV3_s9p-25" value="" style="html=1;jettySize=18;whiteSpace=wrap;fontSize=13;strokeColor=#3a414a;strokeOpacity=100;dashed=1;fixDash=1;strokeWidth=0.8;rounded=1;arcSize=12;edgeStyle=orthogonalEdgeStyle;startArrow=openAsync;startSize=10;endArrow=openAsync;flipV=1;endSize=10;exitX=1.004;exitY=0.5;exitPerimeter=0;lucidId=745q.h3CGlMZ;" edge="1" parent="1" source="_XNoOCEPYwUfkBV3_s9p-13">
          <mxGeometry width="100" height="100" relative="1" as="geometry">
            <Array as="points" />
            <mxPoint x="3990" y="87" as="targetPoint" />
          </mxGeometry>
        </mxCell>
      </root>
    </mxGraphModel>
  </diagram>
</mxfile>
